<?xml version="1.0" encoding="UTF-8"?><svg xmlns="http://www.w3.org/2000/svg" xmlns:xlink="http://www.w3.org/1999/xlink" height="194.6" preserveAspectRatio="xMidYMid meet" version="1.0" viewBox="8.7 0.7 132.9 194.6" width="132.9" zoomAndPan="magnify"><g id="change1_1"><path d="M71.6,48.79c6.5,0.18,47.45-0.25,47.48-8.23c0.02-3.97-5.69-5.53-9.76-5.53c-1.45,0-1.8,0.6-0.36,0.79 c2.62,0.35,7.05,1.64,6.94,4.28c-0.23,5.42-34.28,7.23-40.81,7.26c-8.29,0.04-34.36-2.95-33.62-9.2c0.3-2.59,8.29-3.4,10.92-3.6 c1.39-0.1,1.46-0.84,0.09-0.97c-3.64-0.37-18.76,0.08-18.07,4.89C35.62,47.02,64.4,48.59,71.6,48.79z"/><path d="M59.51,34.37c8.66,3.79,23.7,2.49,32.75,1.11c1.28-0.19,0.73-0.94-0.55-0.75c-8.62,1.31-20.04,0.75-28.3-2.87 c-0.95-0.41-1.21-0.95-0.64-2.03c2.78-5.29,1.55-10.07,4.01-15.48c2.55-5.62,8.84-10.08,11.69-2.73c1.18,3.04,3.2,3.88,5.95,1.44 c1.87-1.66,4.61-4.19,6-0.6c1.93,4.95,4.13,11.09,4.29,16.35c0.04,1.18,1.18,1.3,1.14,0.12c-0.19-6.07-1.25-11.9-3.7-17.14 c-2.42-5.18-4.84-3.66-7.83-1c-1.59,1.41-2.87,1.46-3.53-0.37c-3.51-9.7-14.05-4.82-17.09,2.41c-2.27,5.42-3.25,11.86-5.99,17.09 C56.5,32.22,57.42,33.45,59.51,34.37z"/><path d="M96.6,155.96c-2.61-0.18-7.46,0.59-11.11,1.4c1.02-1.12,1.81-2.82,1.63-5.16c3.71-0.46,7.46-0.78,8.12-0.83 c1.15-0.09,2.27-1.16,0.34-1.29c-2.05-0.14-5.49,0.31-8.64,0.9c-0.02-0.12-0.04-0.24-0.07-0.36c-0.93-3.86-4.02-5.1-3.12-2.71 c0.33,0.88,0.57,2.21,0.7,3.59c-1.34,0.3-2.52,0.61-3.36,0.87c-0.81-0.86-2.02-0.85-3.18-0.34c-0.01-0.02-0.02-0.04-0.04-0.07 c-0.37-0.58-0.93-0.99-1.56-1.23c0.06-0.11,0.14-0.42,0.23-0.95c0.26-1.45-0.32-5.36-1.19-6.81c-0.12-0.2-0.22-0.32-0.3-0.42 c1.21-0.6,2.02-1.98,2.09-3.59c0.1-2.08-1.17-3.65-2.95-3.48c-1.78,0.17-3.21,2-3.19,4.08c0.02,2.09,1.21,3.47,2.99,3.3 c0.25-0.02,0.49-0.08,0.72-0.17c0.01,0.22,0.07,0.54,0.21,0.91c0.65,1.81,1.29,4.21,1.27,6.16c-0.01,0.46,0.01,0.78,0.04,0.92 c-1.78-0.62-4.09,0.1-4.49,2.29c-0.59,3.27,1.11,4.29,2.8,4.28c-0.08,1,0.02,1.95,0.24,2.66c0.49,1.57,1.36-0.14,1.29-1.18 c-0.13-1.81,3.19-5.83,4.56-4.44c2.79,2.84-5.54,6.83-6.59,7.57c-5.74,4.02-4.04,17.88-0.52,21.66c1.05,1.13-3.54-8.44-0.21-17.29 c1.24-3.28,5.48-4.61,7.7-6.94c0.23-0.05,0.47-0.11,0.75-0.18c0.51-0.13,1.12-0.26,1.8-0.38c0.05,0.01,0.11,0,0.19-0.03 c4.46-0.79,11.6-1.39,12.53-1.46C97.4,157.16,98.53,156.09,96.6,155.96z M72.67,139.28c-0.01-1.19,0.82-2.24,1.86-2.33 c1.03-0.09,1.77,0.8,1.71,1.99c-0.06,1.17-0.8,2.13-1.83,2.23C73.37,141.26,72.68,140.48,72.67,139.28z M76.12,153.25 c-0.68,0.67-1.12,1.61-1.37,2.6c-1.75-0.15-2.43-1.19-1.73-2.99c0.71-1.83,3.11-1.33,4.03-0.36 C76.73,152.72,76.41,152.97,76.12,153.25z M81.55,153.06c0.85-0.18,1.87-0.35,2.97-0.51c0.11,2.03,0,3.96-0.37,4.57 c-0.14,0.22-0.26,0.44-0.38,0.65c-0.82,0.21-1.52,0.41-2.03,0.58C82.54,157.04,82.68,155.4,81.55,153.06z"/><path d="M57.82,150c0.04-0.2,0.08-0.39,0.12-0.57c0.51-2.07-0.93-1.67-1.94,0.51c-1.66-0.02-3.19,0.05-4.3,0.25 c-0.07,0.01-0.12,0.03-0.18,0.04c0.05-0.19,0.04-0.46-0.09-0.81c-3.52-9.37-1.06-20.45-8.54-38.75c-0.52-1.26-1.19-0.42-0.72,0.87 c4.27,11.6,5.95,34.55,8.07,38.31c0.2,0.35,0.42,0.55,0.63,0.65c-0.54,0.41,0.33,0.98,1.2,0.95c0.36-0.01,1.69-0.05,3.42-0.07 c-0.12,0.43-0.22,0.89-0.28,1.39c-0.1,0.75-0.12,1.43-0.11,2.09c-1.63,0.29-3.12,0.64-4.18,1.05c-1.81,0.7-0.57,1.42,0.53,1.17 c0.38-0.09,1.86-0.41,3.76-0.79c0.35,2.43,1.44,4.09,2.55,4.95c1.81,1.41,1.18,0.14,0.4-1.18c-0.33-0.56-0.55-2.28-0.62-4.23 c2.88-0.54,6.06-1.07,7.94-1.15c3.8-0.16,2.79-0.53,0.19-0.74c-1.42-0.11-4.82,0.09-8.15,0.54c0-1.07,0.04-2.15,0.13-3.11 c3.07,0,6.63,0.07,8.63,0.36c3.78,0.56,2.83,0,0.29-0.69C65.09,150.63,61.37,150.16,57.82,150z"/><path d="M70.67,128.67c0.02,2.09,1.21,3.47,2.99,3.3c1.78-0.17,3.06-1.86,3.16-3.9c0.1-2.08-1.17-3.65-2.95-3.48 C72.08,124.75,70.65,126.58,70.67,128.67z M75.92,128.04c-0.06,1.17-0.8,2.14-1.83,2.23c-1.04,0.09-1.73-0.69-1.74-1.88 c-0.01-1.19,0.82-2.24,1.86-2.33C75.24,125.95,75.98,126.85,75.92,128.04z"/><path d="M74.08,113.9c-1.78,0.17-3.21,2-3.19,4.09c0.02,2.09,1.21,3.47,2.99,3.3c1.78-0.17,3.06-1.86,3.16-3.9 C77.13,115.29,75.86,113.73,74.08,113.9z M74.3,119.57c-1.03,0.1-1.73-0.69-1.74-1.88c-0.01-1.19,0.82-2.24,1.86-2.33 c1.03-0.09,1.77,0.8,1.72,1.99C76.08,118.51,75.34,119.48,74.3,119.57z"/><path d="M106.75,74.45c-1.65,3.68-3.29,6.46-4.25,8.34c-2.89,5.71-2.28,4.63,0.04,1.85c17.45-20.86,3.78-25.22,1.04-22.27 c-2.49,2.68-6.37,6.96-9.39,8.79c-1.94,1.17-3.9,2.23-4.39,4.89c-1.54,8.45-5.31,19.08-10.09,27.05c-1.29-2.51,1.2-9.07-0.96-12.21 c-0.7-1.01,3.97-0.52,5.46-1.89c1.52-1.39,1.71-2.33,0.09-1.34c-1.53,0.94-5.44,1.5-7.03,1.88c-0.88,0.21-0.69,0.22-0.4,0.9 c0.32,0.73,0.53,1.48,0.66,2.25c-0.74-0.19-1.98-0.14-3.26-0.14c-0.58,0-1.01,0.06-1.33,0.16c0.15-0.69,0.36-1.37,0.65-2.05 c0.29-0.67,0.53-0.71-0.27-1.05c-1.51-0.63-5.49-1.79-7.07-2.75c-1.63-1-1.43-0.06,0.11,1.34c1.33,1.21,4.85,2.47,5.06,2.82 c0.41,0.7,0.5,2.15,0.43,3.82c-0.06,0.52-0.09,1.01-0.1,1.45c-0.21,2.35-0.65,4.8-0.96,5.99c-3.72-7.66-6.89-16.16-8.17-24.52 c-0.42-2.74-0.84-4.01-2.84-5.55c-3.56-2.74-5.45-10.68-9.44-9.56c-11.71,3.28-3.04,14.26,0.2,23.03c0.48,1.3,0.76,0.82,0.43-0.52 c-2.18-8.86-4.97-18.6-2.29-19.27c6.45-1.6,3.23,2.8,10.11,8.11c1.54,1.19,1.99,2.25,2.21,4.37c1.07,10.59,5.15,24.25,10.41,32.84 c1.44,2.35,3.39,3.67,5.87,0.98c7.4-8.05,12.55-23.78,14.39-35.2c0.32-1.99,2.16-3.47,3.57-4.32c3.17-1.92,6.03-5.13,8.65-7.95 c1.55-1.67,7.35,0.02,4.77,5.55C108.2,71.26,107.56,72.62,106.75,74.45z"/><path d="M110.35,107.52c-2.17,4.09-8.69,34.77-8.17,40.14c0.13,1.39,0.96,2.1,0.83,0.71c-0.45-4.66,7.66-33.38,8.87-41.1 C112.09,105.9,110.97,106.34,110.35,107.52z"/><path d="M79.44,161.92c-0.08-0.69-0.47-0.41-0.38,0.28c0.95,7.36,2.71,15.05,5.61,21.81c0.2,0.46-0.1,1.09-0.68,1.37 c-0.55,0.26,0.25,0.68,0.83,0.54c0.96-0.23,3.47-0.74,2.84-1.87C84.15,177.63,80.26,168.76,79.44,161.92z"/><path d="M46.73,149.69c-0.64,6.95-3.56,14.24-8.83,17.79c0.01-0.08,0.02-0.16,0.02-0.24c0.3-2.77-1.4-4.24-1.58-0.75 c-0.2,4.01,0.33,12.96,0.87,16.96c0.24,1.77,0.98,3.19,0.55,0.58c-0.32-1.96-0.33-9.44-0.04-14.36c6.34-1.76,9.35-9.48,10.22-19.74 C48.07,148.55,46.86,148.3,46.73,149.69z"/><path d="M77.42,162.9c0.27-0.62-0.62-0.24-0.89,0.38c-3.63,8.39-3.06,16.92,0.26,25.19c0.58,1.45,1.62,3.33-0.3,3.76 c-2.14,0.48-5.04,0.57-6.76,2.13c-0.47,0.42-0.28,0.91,0.19,0.49c1.55-1.4,6.47-0.43,8.43-0.87c2.69-0.6,2.24-2.23,1.56-4.44 C77.64,182.17,74.1,170.35,77.42,162.9z"/><path d="M39.06,164.24c-3.03-4.63-27.03-32.55-26.03-35.07c5.18-13.1,11.27-26.24,15.42-40.8c1.75-6.13,15.64-12.76,11.78-11.45 c-5.85,1.99-11.47,1.4-13.82,9.08c-4.38,14.28-10.04,27.85-15.34,41.6c-1.35,3.51-2.39,5.13,0.62,8.99 c7.97,10.22,19.61,17.7,26.85,28.78C39.32,166.55,39.84,165.43,39.06,164.24z"/><path d="M138.36,114.47c-4.73-10.57-8.64-23-12.02-34.37c-1.15-3.85-8.82-2.91-14.17-3.12c-1.09-0.04,6.42,1.87,10.02,3.57 c3.38,1.59,11.44,29.51,14.16,35.59c3.88,8.68-18.87,28.78-22.58,45.91c-0.82,3.78-5.38-1.18-6.48-3.38 c-0.57-1.13-1.17-1.11-0.88,0.19c1.04,4.52,6.63,9.69,9.17,2.56c4.04-11.37,15.98-25.16,23.03-34.32 C141.58,123.22,139.91,117.95,138.36,114.47z"/><path d="M109.78,165.58c-4.13-0.62-7.72-9.63-7.6-13.75c0.04-1.39-0.95-1.02-1.02,0.37c-0.1,2.03,0.24,4.67,0.98,7.18 c-1.02,1.39-2.49,3.77-4.25,3.52c-1.18-0.17-0.99,1.15,0.19,1.32c2.17,0.3,3.55-1.01,4.83-2.63c1.43,3.48,3.69,6.26,6.66,6.11 C110.75,167.64,110.95,165.76,109.78,165.58z"/><path d="M59.2,60.76c3.24,0.99,8.89,1.44,12.2,0.56c2.65-0.7,3.74-3.45,4.59-5.88c0.37-1.05,1.5-1.76,1.6-0.23 c0.18,2.61,0.43,5.98,3.7,6.4c3.94,0.5,8.64,0.22,12.43-0.96c3.41-1.06,3.9-5.09,3.87-7.93c-0.04-3.77-3.26-1.87-9.04-1.74 c-9.05,0.2-22.53,0.11-27.32-0.67c-2.19-0.36-5.96-1.84-5.72,1.48C55.69,54.14,56.53,59.95,59.2,60.76z M57.95,50.68 c1.7,0.72,1.75,4.5,4.07,6.53c2.06,1.79,5.08,3.01,5.15,3.3c0.17,0.8-5.64-0.31-6.28-0.6C56.03,57.73,56.87,50.22,57.95,50.68z"/></g></svg>