<?xml version="1.0" encoding="UTF-8" standalone="no"?><svg xmlns="http://www.w3.org/2000/svg" xmlns:xlink="http://www.w3.org/1999/xlink" fill="#000000" height="2226.3" preserveAspectRatio="xMidYMid meet" version="1" viewBox="0.0 -32.0 1850.7 2226.3" width="1850.7" zoomAndPan="magnify"><defs><clipPath id="a"><path d="M 943 1941 L 1208 1941 L 1208 2194.371094 L 943 2194.371094 Z M 943 1941"/></clipPath><clipPath id="b"><path d="M 608 1941 L 873 1941 L 873 2194.371094 L 608 2194.371094 Z M 608 1941"/></clipPath><clipPath id="c"><path d="M 0 533 L 1850.679688 533 L 1850.679688 1049 L 0 1049 Z M 0 533"/></clipPath></defs><g><g id="change1_1"><path d="M 385.277344 831.210938 C 385.277344 831.210938 361.382812 1007.398438 433.0625 1114.921875 C 433.0625 1114.921875 423.105469 927.761719 506.730469 885.949219 L 385.277344 831.210938" fill="#674e24"/></g><g id="change1_2"><path d="M 1430.609375 831.210938 C 1430.609375 831.210938 1454.5 1007.398438 1382.820312 1114.921875 C 1382.820312 1114.921875 1392.78125 927.761719 1309.148438 885.949219 L 1430.609375 831.210938" fill="#674e24"/></g><g clip-path="url(#a)" id="change2_2"><path d="M 1207.851562 2068.121094 C 1207.851562 2149.078125 1186.5 2194.371094 1186.5 2194.371094 L 951.992188 2102.5 L 948.753906 2101.21875 L 943.574219 2099.191406 C 944.359375 2097.269531 944.851562 2095.210938 944.851562 2093.148438 L 944.851562 2043.078125 C 944.851562 2041.019531 944.359375 2038.929688 943.574219 2037.019531 L 948.753906 2034.980469 L 951.992188 2033.710938 L 1186.5 1941.871094 C 1186.5 1941.871094 1207.851562 1987.148438 1207.851562 2068.121094" fill="#da1546"/></g><g id="change3_1"><path d="M 954.152344 2040.511719 L 954.152344 2095.730469 C 954.152344 2098.011719 953.367188 2100.269531 952.039062 2102.398438 C 952.015625 2102.429688 951.992188 2102.480469 951.992188 2102.5 L 948.753906 2101.21875 L 943.574219 2099.191406 C 944.359375 2097.269531 944.851562 2095.210938 944.851562 2093.148438 L 944.851562 2043.078125 C 944.851562 2041.019531 944.359375 2038.929688 943.574219 2037.019531 L 948.753906 2034.980469 L 951.992188 2033.710938 C 951.992188 2033.730469 952.015625 2033.78125 952.039062 2033.800781 C 953.367188 2035.921875 954.152344 2038.21875 954.152344 2040.511719" fill="#b4173c"/></g><g id="change3_2"><path d="M 1069.980469 2076.078125 L 969.359375 2068.109375 L 1069.980469 2060.140625 C 1074.378906 2059.789062 1078.230469 2063.078125 1078.578125 2067.480469 C 1078.929688 2071.878906 1075.648438 2075.730469 1071.238281 2076.078125 C 1070.828125 2076.109375 1070.378906 2076.109375 1069.980469 2076.078125" fill="#b4173c"/></g><g clip-path="url(#b)" id="change2_3"><path d="M 871.675781 2093.140625 C 871.675781 2095.210938 872.152344 2097.28125 872.949219 2099.199219 L 630.023438 2194.359375 C 630.023438 2194.359375 608.664062 2149.089844 608.664062 2068.109375 C 608.664062 1987.140625 630.023438 1941.871094 630.023438 1941.871094 L 872.949219 2037.03125 C 872.152344 2038.941406 871.675781 2041.011719 871.675781 2043.089844 L 871.675781 2093.140625" fill="#da1546"/></g><g id="change3_3"><path d="M 746.53125 2060.140625 L 847.152344 2068.109375 L 746.53125 2076.078125 C 742.128906 2076.429688 738.277344 2073.148438 737.929688 2068.738281 C 737.582031 2064.339844 740.867188 2060.488281 745.269531 2060.140625 C 745.679688 2060.109375 746.132812 2060.109375 746.53125 2060.140625" fill="#b4173c"/></g><g id="change2_1"><path d="M 944.839844 2043.089844 L 944.839844 2093.140625 C 944.839844 2095.210938 944.359375 2097.28125 943.5625 2099.199219 C 941.171875 2104.769531 935.753906 2108.601562 929.378906 2108.601562 L 887.136719 2108.601562 C 880.761719 2108.601562 875.339844 2104.769531 872.949219 2099.199219 C 872.152344 2097.28125 871.675781 2095.210938 871.675781 2093.140625 L 871.675781 2043.089844 C 871.675781 2041.011719 872.152344 2038.941406 872.949219 2037.03125 C 875.339844 2031.449219 880.761719 2027.621094 887.136719 2027.621094 L 929.378906 2027.621094 C 935.753906 2027.621094 941.171875 2031.449219 943.5625 2037.03125 C 944.359375 2038.941406 944.839844 2041.011719 944.839844 2043.089844" fill="#da1546"/></g><g clip-path="url(#c)" id="change1_7"><path d="M 1837.703125 910.164062 C 1769.976562 1019.253906 1573.378906 1049.570312 1367.089844 1048.957031 C 1359.359375 1048.957031 1351.589844 1048.910156 1343.859375 1048.773438 C 1157.152344 1046.183594 966.226562 1019.777344 859.007812 1004.789062 C 770.148438 992.367188 607.28125 960.28125 447.085938 915.035156 C 428.957031 909.878906 410.832031 904.589844 392.84375 899.164062 C 157.65625 827.722656 -52.707031 728.988281 11.792969 624.15625 C 60.226562 545.316406 196.34375 527.851562 363.242188 534.925781 C 340.945312 618.015625 324.785156 683.824219 319.585938 705.234375 L 319.585938 705.28125 L 320.242188 705.28125 C 349.609375 707.722656 1289.757812 785.007812 1496.933594 849.785156 L 1494.402344 678.484375 C 1494.449219 678.484375 1494.449219 678.484375 1494.449219 678.484375 C 1706.835938 727.863281 1903.746094 803.835938 1837.703125 910.164062" fill="#674e24"/></g><g id="change4_1"><path d="M 1496.9375 849.789062 C 1289.765625 785 349.609375 707.710938 320.242188 705.273438 L 319.585938 705.273438 L 319.585938 705.230469 C 324.785156 683.820312 340.945312 618.011719 363.242188 534.921875 L 363.382812 534.921875 C 1188.117188 532.339844 1460.636719 660.683594 1491.453125 676.792969 C 1491.695312 676.894531 1491.921875 677.078125 1492.113281 677.171875 C 1492.441406 677.367188 1492.777344 677.550781 1493.003906 677.640625 C 1493.289062 677.785156 1493.5625 677.925781 1493.757812 678.058594 C 1494.082031 678.253906 1494.316406 678.4375 1494.410156 678.488281 L 1496.9375 849.789062" fill="#040606"/></g><g id="change1_3"><path d="M 1494.402344 678.496094 C 1494.308594 678.441406 1494.078125 678.253906 1493.757812 678.0625 C 1493.566406 677.929688 1493.285156 677.78125 1493.003906 677.648438 C 1492.773438 677.550781 1492.4375 677.363281 1492.113281 677.175781 C 1491.925781 677.082031 1491.695312 676.894531 1491.453125 676.796875 C 1460.636719 660.683594 1188.113281 532.34375 363.382812 534.917969 L 363.242188 534.917969 C 415.09375 340.664062 499.828125 52.269531 553.554688 18.921875 C 635.480469 -31.953125 788.652344 33.015625 912.078125 58.878906 C 1035.5 84.726562 1219.589844 52.496094 1358.1875 83.085938 C 1496.796875 113.671875 1485.976562 277.390625 1485.976562 277.390625 L 1494.402344 678.496094" fill="#674e24"/></g><g id="change1_4"><path d="M 933.933594 1623.578125 C 933.933594 1623.578125 923.441406 1684.28125 978.300781 1692.460938 C 1033.128906 1700.621094 1180.210938 1714.621094 1210.558594 1777.648438 C 1210.558594 1777.648438 1207.070312 1728.640625 1141.71875 1693.621094 C 1076.328125 1658.601562 1002.800781 1674.941406 985.285156 1635.261719 C 967.78125 1595.570312 934.617188 1607.75 933.933594 1623.578125" fill="#674e24"/></g><g id="change1_5"><path d="M 882.585938 1623.578125 C 882.585938 1623.578125 893.074219 1684.28125 838.226562 1692.460938 C 783.375 1700.621094 636.300781 1714.621094 605.953125 1777.648438 C 605.953125 1777.648438 609.4375 1728.640625 674.816406 1693.621094 C 740.175781 1658.601562 813.714844 1674.941406 831.21875 1635.261719 C 848.734375 1595.570312 881.898438 1607.75 882.585938 1623.578125" fill="#674e24"/></g><g id="change1_6"><path d="M 935.855469 1807.480469 C 927.421875 1836.921875 908.257812 1846.328125 908.257812 1846.328125 C 908.257812 1846.328125 889.097656 1836.921875 880.660156 1807.480469 C 876.441406 1792.738281 883.351562 1784.371094 891.308594 1779.691406 C 901.683594 1773.589844 914.832031 1773.589844 925.210938 1779.691406 C 933.167969 1784.371094 940.074219 1792.738281 935.855469 1807.480469" fill="#674e24"/></g></g></svg>